<svg xmlns="http://www.w3.org/2000/svg" width="1340" height="1290" viewBox="0 0 1340 1290" role="img" aria-label="10 工单进度与总结"><defs><marker id="arrow9" markerWidth="10" markerHeight="8" refX="9" refY="4" orient="auto"><path d="M0,0 L10,4 L0,8 Z" fill="#657891"/></marker></defs><rect width="100%" height="100%" fill="#fff"/><g font-family="Microsoft YaHei,PingFang SC,Arial,sans-serif"><text x="60" y="44" font-size="26" font-weight="700" fill="#15334b">10 工单进度与总结</text><text x="60" y="79" font-size="14" fill="#53697e">本机固定业务流程与审批人通过真实 HTTP MCP 返回；不代表外部工单系统已接入。</text><path d="M640,245 L640,300" fill="none" stroke="#657891" stroke-width="1.7" marker-end="url(#arrow9)"/><path d="M640,410 L640,465" fill="none" stroke="#657891" stroke-width="1.7" marker-end="url(#arrow9)"/><path d="M575,575 L575,602.5 L230,602.5 L230,630" fill="none" stroke="#657891" stroke-width="1.7" marker-end="url(#arrow9)"/><path d="M705,575 L705,602.5 L1050,602.5 L1050,630" fill="none" stroke="#657891" stroke-width="1.7" marker-end="url(#arrow9)"/><path d="M295,740 L295,767.5 L640,767.5 L640,795" fill="none" stroke="#657891" stroke-width="1.7" marker-end="url(#arrow9)"/><path d="M985,740 L985,767.5 L640,767.5 L640,795" fill="none" stroke="#657891" stroke-width="1.7" marker-end="url(#arrow9)"/><path d="M640,905 L640,960" fill="none" stroke="#657891" stroke-width="1.7" marker-end="url(#arrow9)"/><path d="M640,1070 L640,1125" fill="none" stroke="#657891" stroke-width="1.7" marker-end="url(#arrow9)"/><path d="M705,575 L705,602 L856,602 L856,1180 L880,1180" fill="none" stroke="#657891" stroke-width="1.7" marker-end="url(#arrow9)"/><rect x="749.5" y="580" width="62" height="20" fill="white" rx="3"/><text x="780.5" y="594" font-size="12" text-anchor="middle" fill="#53697e">后续接入</text><rect x="470" y="135" width="340" height="110" rx="12" fill="#edf5ff" stroke="#3778a8" stroke-width="1.5"/><text x="640" y="185" text-anchor="middle" font-size="15" font-weight="700" fill="#1e354c">工单列表 / 详情 / 总结</text><text x="640" y="205" text-anchor="middle" font-size="13" font-weight="400" fill="#1e354c">编号、状态、公司、报表或处理人</text><polygon points="640,300 810,355 640,410 470,355" fill="#fff4dc" stroke="#b58022" stroke-width="1.5"/><text x="640" y="350" text-anchor="middle" font-size="15" font-weight="700" fill="#1e354c">当前授权范围与查询预算</text><text x="640" y="370" text-anchor="middle" font-size="13" font-weight="400" fill="#1e354c">不可见工单与不存在工单统一拒绝</text><rect x="470" y="465" width="340" height="110" rx="12" fill="#e8f7ef" stroke="#268255" stroke-width="1.5"/><text x="640" y="515" text-anchor="middle" font-size="15" font-weight="700" fill="#1e354c">WorkOrderProvider 只读接口</text><text x="640" y="535" text-anchor="middle" font-size="13" font-weight="400" fill="#1e354c">返回完整有界事实，不推进审批</text><rect x="60" y="630" width="340" height="110" rx="12" fill="#e8f7ef" stroke="#268255" stroke-width="1.5"/><text x="230" y="680" text-anchor="middle" font-size="15" font-weight="700" fill="#1e354c">固定演示示例</text><text x="230" y="700" text-anchor="middle" font-size="13" font-weight="400" fill="#1e354c">待审批、处理中、完成、驳回</text><rect x="880" y="630" width="340" height="110" rx="12" fill="#e8f7ef" stroke="#268255" stroke-width="1.5"/><text x="1050" y="680" text-anchor="middle" font-size="15" font-weight="700" fill="#1e354c">实际演示派单关联</text><text x="1050" y="700" text-anchor="middle" font-size="13" font-weight="400" fill="#1e354c">成功条目映射固定首个审批环节</text><rect x="470" y="795" width="340" height="110" rx="12" fill="#e8f7ef" stroke="#268255" stroke-width="1.5"/><text x="640" y="835" text-anchor="middle" font-size="15" font-weight="700" fill="#1e354c">固定环节与固定处理人</text><text x="640" y="855" text-anchor="middle" font-size="13" font-weight="400" fill="#1e354c">提交 → 部门审批 → 财务复核</text><text x="640" y="875" text-anchor="middle" font-size="13" font-weight="400" fill="#1e354c">业务处理 → 归档；未来步骤未到达</text><rect x="470" y="960" width="340" height="110" rx="12" fill="#edf5ff" stroke="#3778a8" stroke-width="1.5"/><text x="640" y="1010" text-anchor="middle" font-size="15" font-weight="700" fill="#1e354c">确定性汇总同一范围</text><text x="640" y="1030" text-anchor="middle" font-size="13" font-weight="400" fill="#1e354c">当前审批人、状态分布、分币种金额</text><rect x="470" y="1125" width="340" height="110" rx="12" fill="#eaf2ff" stroke="#386bc1" stroke-width="1.5"/><text x="640" y="1175" text-anchor="middle" font-size="15" font-weight="700" fill="#1e354c">来源、时间线及办理小结</text><text x="640" y="1195" text-anchor="middle" font-size="13" font-weight="400" fill="#1e354c">终态无当前待办；不提供审批按钮</text><rect x="880" y="1125" width="340" height="110" rx="12" fill="#fff0ef" stroke="#ba534e" stroke-width="1.5"/><text x="1050" y="1175" text-anchor="middle" font-size="15" font-weight="700" fill="#1e354c">真实工单系统接入待完成</text><text x="1050" y="1195" text-anchor="middle" font-size="13" font-weight="400" fill="#1e354c">替换业务提供者后须重新验收</text><text x="60" y="1264" font-size="12" fill="#64748b">2026-10-07 · 依据当前工作区源码 · 模型解析 / 确定性业务 / 实际派单边界分离</text></g></svg>