<svg xmlns="http://www.w3.org/2000/svg" width="1340" height="2775" viewBox="0 0 1340 2775" role="img" aria-label="05 预览、规则与记录选择"><defs><marker id="arrow4" markerWidth="10" markerHeight="8" refX="9" refY="4" orient="auto"><path d="M0,0 L10,4 L0,8 Z" fill="#657891"/></marker></defs><rect width="100%" height="100%" fill="#fff"/><g font-family="Microsoft YaHei,PingFang SC,Arial,sans-serif"><text x="60" y="44" font-size="26" font-weight="700" fill="#15334b">05 预览、规则与记录选择</text><text x="60" y="79" font-size="14" fill="#53697e">模型不读取全部业务明细或自行判断规则命中；记录描述只有在服务器真实预览中唯一定位后才转为 RecordKey。</text><path d="M470,190 L435,190 L435,355 L400,355" fill="none" stroke="#657891" stroke-width="1.7" marker-end="url(#arrow4)"/><rect x="428" y="168" width="49" height="20" fill="white" rx="3"/><text x="452.5" y="182" font-size="12" text-anchor="middle" fill="#53697e">可复用</text><path d="M640,245 L640,300" fill="none" stroke="#657891" stroke-width="1.7" marker-end="url(#arrow4)"/><rect x="615.5" y="250.5" width="49" height="20" fill="white" rx="3"/><text x="640" y="264.5" font-size="12" text-anchor="middle" fill="#53697e">需刷新</text><path d="M640,410 L640,465" fill="none" stroke="#657891" stroke-width="1.7" marker-end="url(#arrow4)"/><path d="M640,575 L640,630" fill="none" stroke="#657891" stroke-width="1.7" marker-end="url(#arrow4)"/><path d="M640,740 L640,795" fill="none" stroke="#657891" stroke-width="1.7" marker-end="url(#arrow4)"/><path d="M640,905 L640,960" fill="none" stroke="#657891" stroke-width="1.7" marker-end="url(#arrow4)"/><path d="M470,1015 L442,1015 L442,685 L470,685" fill="none" stroke="#657891" stroke-width="1.7" marker-end="url(#arrow4)"/><rect x="418.5" y="993" width="75" height="20" fill="white" rx="3"/><text x="456" y="1007" font-size="12" text-anchor="middle" fill="#53697e">还有下一批</text><path d="M640,1070 L640,1125" fill="none" stroke="#657891" stroke-width="1.7" marker-end="url(#arrow4)"/><rect x="609" y="1075.5" width="62" height="20" fill="white" rx="3"/><text x="640" y="1089.5" font-size="12" text-anchor="middle" fill="#53697e">扫描完成</text><path d="M810,1180 L845,1180 L845,1180 L880,1180" fill="none" stroke="#657891" stroke-width="1.7" marker-end="url(#arrow4)"/><path d="M640,1235 L640,1290" fill="none" stroke="#657891" stroke-width="1.7" marker-end="url(#arrow4)"/><path d="M400,355 L435,355 L435,1345 L470,1345" fill="none" stroke="#657891" stroke-width="1.7" marker-end="url(#arrow4)"/><path d="M810,1345 L845,1345 L845,1510 L880,1510" fill="none" stroke="#657891" stroke-width="1.7" marker-end="url(#arrow4)"/><rect x="783.5" y="1323" width="88" height="20" fill="white" rx="3"/><text x="827.5" y="1337" font-size="12" text-anchor="middle" fill="#53697e">选择来源无效</text><path d="M640,1400 L640,1455" fill="none" stroke="#657891" stroke-width="1.7" marker-end="url(#arrow4)"/><rect x="583" y="1405.5" width="114" height="20" fill="white" rx="3"/><text x="640" y="1419.5" font-size="12" text-anchor="middle" fill="#53697e">修改或验证排除项</text><path d="M470,1345 L442,1345 L442,2335 L470,2335" fill="none" stroke="#657891" stroke-width="1.7" marker-end="url(#arrow4)"/><rect x="412" y="1323" width="88" height="20" fill="white" rx="3"/><text x="456" y="1337" font-size="12" text-anchor="middle" fill="#53697e">无需变更选择</text><path d="M640,1565 L640,1620" fill="none" stroke="#657891" stroke-width="1.7" marker-end="url(#arrow4)"/><rect x="583" y="1570.5" width="114" height="20" fill="white" rx="3"/><text x="640" y="1584.5" font-size="12" text-anchor="middle" fill="#53697e">自然语言记录变更</text><path d="M470,1510 L442,1510 L442,2170 L470,2170" fill="none" stroke="#657891" stroke-width="1.7" marker-end="url(#arrow4)"/><rect x="392.5" y="1488" width="127" height="20" fill="white" rx="3"/><text x="456" y="1502" font-size="12" text-anchor="middle" fill="#53697e">仅验证已有/UI键</text><path d="M640,1730 L640,1785" fill="none" stroke="#657891" stroke-width="1.7" marker-end="url(#arrow4)"/><path d="M810,1840 L845,1840 L845,1840 L880,1840" fill="none" stroke="#657891" stroke-width="1.7" marker-end="url(#arrow4)"/><rect x="803" y="1818" width="49" height="20" fill="white" rx="3"/><text x="827.5" y="1832" font-size="12" text-anchor="middle" fill="#53697e">非唯一</text><path d="M640,1895 L640,1950" fill="none" stroke="#657891" stroke-width="1.7" marker-end="url(#arrow4)"/><rect x="622" y="1900.5" width="36" height="20" fill="white" rx="3"/><text x="640" y="1914.5" font-size="12" text-anchor="middle" fill="#53697e">唯一</text><path d="M640,2060 L640,2115" fill="none" stroke="#657891" stroke-width="1.7" marker-end="url(#arrow4)"/><path d="M810,2170 L845,2170 L845,1510 L880,1510" fill="none" stroke="#657891" stroke-width="1.7" marker-end="url(#arrow4)"/><rect x="796.5" y="2148" width="62" height="20" fill="white" rx="3"/><text x="827.5" y="2162" font-size="12" text-anchor="middle" fill="#53697e">有缺失键</text><path d="M640,2225 L640,2280" fill="none" stroke="#657891" stroke-width="1.7" marker-end="url(#arrow4)"/><rect x="609" y="2230.5" width="62" height="20" fill="white" rx="3"/><text x="640" y="2244.5" font-size="12" text-anchor="middle" fill="#53697e">全部有效</text><path d="M470,2335 L435,2335 L435,2500 L400,2500" fill="none" stroke="#657891" stroke-width="1.7" marker-end="url(#arrow4)"/><rect x="408.5" y="2313" width="88" height="20" fill="white" rx="3"/><text x="452.5" y="2327" font-size="12" text-anchor="middle" fill="#53697e">查询/零候选</text><path d="M640,2390 L640,2445" fill="none" stroke="#657891" stroke-width="1.7" marker-end="url(#arrow4)"/><rect x="609" y="2395.5" width="62" height="20" fill="white" rx="3"/><text x="640" y="2409.5" font-size="12" text-anchor="middle" fill="#53697e">生成清单</text><path d="M640,2555 L640,2610" fill="none" stroke="#657891" stroke-width="1.7" marker-end="url(#arrow4)"/><path d="M400,2500 L435,2500 L435,2665 L470,2665" fill="none" stroke="#657891" stroke-width="1.7" marker-end="url(#arrow4)"/><polygon points="640,135 810,190 640,245 470,190" fill="#fff4dc" stroke="#b58022" stroke-width="1.5"/><text x="640" y="175" text-anchor="middle" font-size="15" font-weight="700" fill="#1e354c">校验最终 desired</text><text x="640" y="195" text-anchor="middle" font-size="13" font-weight="400" fill="#1e354c">是否和 effective 相同？</text><text x="640" y="215" text-anchor="middle" font-size="13" font-weight="400" fill="#1e354c">是否有 ACTIVE、版本有效预览？</text><rect x="60" y="300" width="340" height="110" rx="12" fill="#edf1f5" stroke="#60768b" stroke-width="1.5"/><text x="230" y="340" text-anchor="middle" font-size="15" font-weight="700" fill="#1e354c">符合条件：复用预览</text><text x="230" y="360" text-anchor="middle" font-size="13" font-weight="400" fill="#1e354c">仅记录修改/建单可复用</text><text x="230" y="380" text-anchor="middle" font-size="13" font-weight="400" fill="#1e354c">普通 PREVIEW 通常重新查</text><rect x="470" y="300" width="340" height="110" rx="12" fill="#edf5ff" stroke="#3778a8" stroke-width="1.5"/><text x="640" y="340" text-anchor="middle" font-size="15" font-weight="700" fill="#1e354c">需要重新查询</text><text x="640" y="360" text-anchor="middle" font-size="13" font-weight="400" fill="#1e354c">PreviewCommand：明确范围</text><text x="640" y="380" text-anchor="middle" font-size="13" font-weight="400" fill="#1e354c">先保存 QUERYING 状态</text><polygon points="640,465 810,520 640,575 470,520" fill="#fff4dc" stroke="#b58022" stroke-width="1.5"/><text x="640" y="505" text-anchor="middle" font-size="15" font-weight="700" fill="#1e354c">查询前记录版本指纹</text><text x="640" y="525" text-anchor="middle" font-size="13" font-weight="400" fill="#1e354c">目录 / 当前规则 / 权限</text><text x="640" y="545" text-anchor="middle" font-size="13" font-weight="400" fill="#1e354c">配额与对话租约持续检查</text><rect x="470" y="630" width="340" height="110" rx="12" fill="#e8f7ef" stroke="#268255" stroke-width="1.5"/><text x="640" y="670" text-anchor="middle" font-size="15" font-weight="700" fill="#1e354c">MCP report_records(cursor)</text><text x="640" y="690" text-anchor="middle" font-size="13" font-weight="400" fill="#1e354c">可信 tenantId/operatorId</text><text x="640" y="710" text-anchor="middle" font-size="13" font-weight="400" fill="#1e354c">每批 500；按 ID 递增</text><rect x="470" y="795" width="340" height="110" rx="12" fill="#e8f7ef" stroke="#268255" stroke-width="1.5"/><text x="640" y="835" text-anchor="middle" font-size="15" font-weight="700" fill="#1e354c">业务侧权限和粗筛</text><text x="640" y="855" text-anchor="middle" font-size="13" font-weight="400" fill="#1e354c">账号当前权限 + 公司范围</text><text x="640" y="875" text-anchor="middle" font-size="13" font-weight="400" fill="#1e354c">租户 / 未派单 / 游标条件</text><rect x="470" y="960" width="340" height="110" rx="12" fill="#edf5ff" stroke="#3778a8" stroke-width="1.5"/><text x="640" y="1000" text-anchor="middle" font-size="15" font-weight="700" fill="#1e354c">Agent 侧当前规则求值</text><text x="640" y="1020" text-anchor="middle" font-size="13" font-weight="400" fill="#1e354c">具体公司规则优先于通配</text><text x="640" y="1040" text-anchor="middle" font-size="13" font-weight="400" fill="#1e354c">Aviator Boolean；异常按未命中</text><rect x="470" y="1125" width="340" height="110" rx="12" fill="#edf1f5" stroke="#60768b" stroke-width="1.5"/><text x="640" y="1165" text-anchor="middle" font-size="15" font-weight="700" fill="#1e354c">生成持久化预览</text><text x="640" y="1185" text-anchor="middle" font-size="13" font-weight="400" fill="#1e354c">超过 5000 → 分批持久化</text><text x="640" y="1205" text-anchor="middle" font-size="13" font-weight="400" fill="#1e354c">确认最新 requestVersion 后激活</text><rect x="880" y="1125" width="340" height="110" rx="12" fill="#edf1f5" stroke="#60768b" stroke-width="1.5"/><text x="1050" y="1165" text-anchor="middle" font-size="15" font-weight="700" fill="#1e354c">激活新预览时</text><text x="1050" y="1185" text-anchor="middle" font-size="13" font-weight="400" fill="#1e354c">旧 ACTIVE → SUPERSEDED</text><text x="1050" y="1205" text-anchor="middle" font-size="13" font-weight="400" fill="#1e354c">旧 PENDING 清单 → EXPIRED</text><polygon points="640,1290 810,1345 640,1400 470,1345" fill="#fff4dc" stroke="#b58022" stroke-width="1.5"/><text x="640" y="1330" text-anchor="middle" font-size="15" font-weight="700" fill="#1e354c">绑定最终预览及 UI 选择</text><text x="640" y="1350" text-anchor="middle" font-size="13" font-weight="400" fill="#1e354c">previewId 相同才接纳</text><text x="640" y="1370" text-anchor="middle" font-size="13" font-weight="400" fill="#1e354c">同范围刷新可迁移并重新验证</text><rect x="880" y="1455" width="340" height="110" rx="12" fill="#fff0ef" stroke="#ba534e" stroke-width="1.5"/><text x="1050" y="1495" text-anchor="middle" font-size="15" font-weight="700" fill="#1e354c">旧选择不可恢复 / 范围变了</text><text x="1050" y="1515" text-anchor="middle" font-size="13" font-weight="400" fill="#1e354c">设置 unresolvedRecords</text><text x="1050" y="1535" text-anchor="middle" font-size="13" font-weight="400" fill="#1e354c">要求重新选择；不默认全部派</text><polygon points="640,1455 810,1510 640,1565 470,1510" fill="#fff4dc" stroke="#b58022" stroke-width="1.5"/><text x="640" y="1495" text-anchor="middle" font-size="15" font-weight="700" fill="#1e354c">需要记录修改时读取真实预览</text><text x="640" y="1515" text-anchor="middle" font-size="13" font-weight="400" fill="#1e354c">最多 5000 条；每页 100</text><text x="640" y="1535" text-anchor="middle" font-size="13" font-weight="400" fill="#1e354c">更多记录先缩小范围</text><rect x="470" y="1620" width="340" height="110" rx="12" fill="#edf5ff" stroke="#3778a8" stroke-width="1.5"/><text x="640" y="1660" text-anchor="middle" font-size="15" font-weight="700" fill="#1e354c">SelectionResolver 依次匹配</text><text x="640" y="1680" text-anchor="middle" font-size="13" font-weight="400" fill="#1e354c">单据号精确 → 去类别前缀</text><text x="640" y="1700" text-anchor="middle" font-size="13" font-weight="400" fill="#1e354c">仍无命中 → label 包含匹配</text><polygon points="640,1785 810,1840 640,1895 470,1840" fill="#fff4dc" stroke="#b58022" stroke-width="1.5"/><text x="640" y="1835" text-anchor="middle" font-size="15" font-weight="700" fill="#1e354c">是否恰好匹配一条？</text><text x="640" y="1855" text-anchor="middle" font-size="13" font-weight="400" fill="#1e354c">重复单据号或描述歧义拒绝</text><rect x="470" y="1950" width="340" height="110" rx="12" fill="#edf1f5" stroke="#60768b" stroke-width="1.5"/><text x="640" y="1990" text-anchor="middle" font-size="15" font-weight="700" fill="#1e354c">转换 RecordKey</text><text x="640" y="2010" text-anchor="middle" font-size="13" font-weight="400" fill="#1e354c">reportId + 字符串 recordId</text><text x="640" y="2030" text-anchor="middle" font-size="13" font-weight="400" fill="#1e354c">ADD 排除；REMOVE 恢复</text><rect x="880" y="1785" width="340" height="110" rx="12" fill="#fff0ef" stroke="#ba534e" stroke-width="1.5"/><text x="1050" y="1825" text-anchor="middle" font-size="15" font-weight="700" fill="#1e354c">0 条或多条命中</text><text x="1050" y="1845" text-anchor="middle" font-size="13" font-weight="400" fill="#1e354c">返回澄清提示</text><text x="1050" y="1865" text-anchor="middle" font-size="13" font-weight="400" fill="#1e354c">请用表格精确勾选</text><polygon points="640,2115 810,2170 640,2225 470,2170" fill="#fff4dc" stroke="#b58022" stroke-width="1.5"/><text x="640" y="2155" text-anchor="middle" font-size="15" font-weight="700" fill="#1e354c">校验排除项都属于当前预览</text><text x="640" y="2175" text-anchor="middle" font-size="13" font-weight="400" fill="#1e354c">CLEAR 恢复全部</text><text x="640" y="2195" text-anchor="middle" font-size="13" font-weight="400" fill="#1e354c">REPLACE 替换排除集合</text><polygon points="640,2280 810,2335 640,2390 470,2335" fill="#fff4dc" stroke="#b58022" stroke-width="1.5"/><text x="640" y="2330" text-anchor="middle" font-size="15" font-weight="700" fill="#1e354c">PREPARE_DISPATCH？</text><text x="640" y="2350" text-anchor="middle" font-size="13" font-weight="400" fill="#1e354c">否则返回预览或规则说明</text><rect x="60" y="2445" width="340" height="110" rx="12" fill="#eaf2ff" stroke="#386bc1" stroke-width="1.5"/><text x="230" y="2485" text-anchor="middle" font-size="15" font-weight="700" fill="#1e354c">0 条候选或仅查询</text><text x="230" y="2505" text-anchor="middle" font-size="13" font-weight="400" fill="#1e354c">不创建清单</text><text x="230" y="2525" text-anchor="middle" font-size="13" font-weight="400" fill="#1e354c">返回事实文本与 selection</text><rect x="470" y="2445" width="340" height="110" rx="12" fill="#edf1f5" stroke="#60768b" stroke-width="1.5"/><text x="640" y="2485" text-anchor="middle" font-size="15" font-weight="700" fill="#1e354c">PlanService 创建清单</text><text x="640" y="2505" text-anchor="middle" font-size="13" font-weight="400" fill="#1e354c">固定预览 + 排除项 + 幂等键</text><text x="640" y="2525" text-anchor="middle" font-size="13" font-weight="400" fill="#1e354c">条数上限 5000；PENDING</text><rect x="470" y="2610" width="340" height="110" rx="12" fill="#eaf2ff" stroke="#386bc1" stroke-width="1.5"/><text x="640" y="2650" text-anchor="middle" font-size="15" font-weight="700" fill="#1e354c">持久化卡片并 SSE 返回</text><text x="640" y="2670" text-anchor="middle" font-size="13" font-weight="400" fill="#1e354c">有效预览约 30 分钟</text><text x="640" y="2690" text-anchor="middle" font-size="13" font-weight="400" fill="#1e354c">待确认清单约 10 分钟</text><text x="60" y="2749" font-size="12" fill="#64748b">2026-09-30 · 依据当前工作区源码 · 模型解析 / 确定性业务 / 实际派单边界分离</text></g></svg>